<?xml version="1.0" standalone="no"?>
<!DOCTYPE svg PUBLIC "-//W3C//DTD SVG 20010904//EN"
 "http://www.w3.org/TR/2001/REC-SVG-20010904/DTD/svg10.dtd">
<svg version="1.0" xmlns="http://www.w3.org/2000/svg"
 width="908.000000pt" height="908.000000pt" viewBox="0 0 908.000000 908.000000"
 preserveAspectRatio="xMidYMid meet">
<metadata>
Created by potrace 1.11, written by Peter Selinger 2001-2013
</metadata>
<g transform="translate(0.000000,908.000000) scale(0.100000,-0.100000)"
fill="#000000" stroke="none">
<path d="M7928 9075 c-2 -2 -33 -6 -68 -9 -36 -2 -80 -9 -98 -15 -18 -5 -35
-10 -37 -10 -3 -1 -6 -1 -7 -2 -2 0 -13 -2 -25 -5 -20 -3 -132 -41 -223 -76
-57 -21 -290 -138 -358 -180 -34 -21 -67 -38 -72 -38 -6 0 -10 -4 -10 -10 0
-5 -5 -10 -10 -10 -6 0 -44 -22 -85 -50 -41 -27 -77 -50 -80 -50 -3 0 -18 -11
-33 -25 -15 -14 -30 -25 -34 -25 -7 0 -112 -73 -145 -100 -7 -5 -17 -10 -23
-10 -5 0 -10 -4 -10 -10 0 -5 -7 -10 -15 -10 -8 0 -15 -4 -15 -9 0 -6 -11 -16
-24 -23 -14 -7 -64 -41 -113 -76 -48 -35 -176 -124 -283 -198 -107 -74 -202
-140 -210 -147 -8 -7 -41 -30 -74 -52 -32 -22 -71 -49 -86 -60 -15 -11 -40
-29 -56 -40 -16 -11 -31 -22 -34 -25 -3 -4 -27 -22 -55 -40 -27 -19 -51 -37
-53 -42 -2 -4 -8 -8 -13 -8 -6 0 -15 -5 -22 -10 -18 -15 -85 -65 -227 -168
-69 -50 -132 -97 -140 -105 -8 -7 -31 -24 -50 -37 -19 -13 -37 -27 -40 -30 -3
-3 -21 -17 -40 -30 -19 -13 -37 -27 -40 -30 -3 -3 -41 -32 -85 -65 -44 -33
-83 -64 -87 -70 -6 -7 -10 -6 -15 1 -5 6 -28 42 -53 80 -25 38 -48 74 -52 79
-230 311 -268 356 -398 465 -36 30 -67 57 -70 61 -5 5 -97 62 -145 89 -188
106 -413 91 -585 -38 -120 -90 -290 -280 -508 -567 -58 -77 -110 -141 -114
-143 -4 -2 -8 -7 -8 -12 0 -6 -65 -106 -132 -202 -17 -25 -127 -196 -163 -255
-57 -92 -119 -199 -189 -328 -65 -119 -88 -160 -98 -172 -6 -7 -7 -13 -3 -13
5 0 2 -8 -6 -17 -30 -36 -230 -451 -356 -738 -41 -93 -81 -183 -90 -200 -8
-16 -16 -37 -18 -46 -2 -9 -12 -36 -23 -60 -11 -24 -39 -93 -62 -154 -24 -60
-48 -123 -55 -140 -7 -16 -20 -52 -30 -80 -9 -27 -21 -59 -25 -70 -17 -43 -35
-90 -37 -100 -1 -5 -36 -108 -77 -228 -40 -120 -74 -220 -75 -222 0 -3 -1 -6
-2 -7 0 -2 -2 -10 -4 -18 -2 -8 -18 -62 -35 -120 -18 -58 -50 -170 -71 -250
-46 -167 -42 -154 -64 -245 -9 -38 -19 -79 -22 -90 -5 -23 -19 -79 -27 -114
-3 -14 -17 -79 -31 -145 -14 -67 -29 -134 -32 -151 -4 -16 -7 -32 -8 -35 -1
-3 -4 -27 -9 -53 -14 -92 -11 -82 -77 -197 -8 -14 -16 -27 -19 -30 -6 -5 -39
-61 -87 -145 -29 -51 -174 -342 -190 -381 -48 -118 -103 -283 -119 -354 -37
-164 97 -316 267 -305 l54 4 1 -332 c1 -183 4 -363 7 -402 4 -38 9 -99 12
-135 9 -117 18 -181 32 -245 4 -16 8 -37 8 -45 1 -8 4 -22 7 -30 3 -8 13 -36
22 -62 31 -86 131 -218 166 -218 5 0 10 -4 10 -9 0 -13 127 -51 173 -51 60 0
210 41 227 61 3 3 20 14 39 24 19 9 39 21 45 26 6 5 43 33 81 61 39 28 72 54
75 58 3 3 25 21 50 40 25 19 47 37 50 40 3 3 25 21 50 41 25 20 56 46 70 58
83 71 136 118 152 133 10 10 20 18 22 18 2 0 29 24 59 53 30 28 96 90 147 137
51 47 123 114 160 150 38 36 119 112 181 170 119 112 138 130 389 370 173 164
293 280 377 362 41 40 59 51 90 53 21 2 76 6 123 10 47 5 96 9 110 10 24 2
105 14 145 21 116 22 178 35 184 39 4 2 23 7 42 10 19 3 54 13 79 21 25 9 52
17 60 19 30 6 167 58 235 88 82 37 278 137 285 146 3 3 21 15 40 25 127 69
357 252 513 409 129 129 123 126 159 57 16 -31 35 -54 74 -94 86 -87 156 -119
244 -112 72 5 118 26 162 74 39 44 55 73 66 127 18 83 -3 148 -73 223 -34 36
-75 99 -114 173 l-60 115 23 30 c49 63 298 473 301 494 1 3 8 19 17 35 49 91
123 298 144 400 5 25 16 126 18 169 3 59 -24 219 -44 255 -6 12 -8 21 -5 21 3
0 -7 18 -21 40 -31 46 -31 45 52 141 27 31 60 69 74 85 83 97 150 176 185 219
22 27 57 69 79 94 57 68 66 80 126 156 30 39 57 72 60 75 3 3 21 25 40 50 19
25 38 47 42 48 4 2 8 10 8 18 0 8 7 17 15 20 8 4 15 12 15 19 0 7 4 15 9 17 8
3 145 186 261 348 30 41 114 165 187 275 73 110 137 205 141 211 4 5 14 21 21
35 8 13 40 65 70 114 85 140 192 331 241 430 25 50 49 93 53 96 5 3 8 10 8 15
-1 5 6 27 16 49 9 22 17 42 18 45 1 3 7 19 14 35 25 59 103 270 106 287 2 9 8
25 14 36 19 35 117 383 137 487 7 40 9 48 14 63 1 4 2 10 1 15 -1 4 3 26 8 50
21 93 30 326 17 405 -3 17 -8 44 -11 60 -2 15 -13 52 -24 82 -65 186 -207 305
-391 326 -25 3 -50 7 -57 9 -6 2 -13 2 -15 0z m-2 -527 c8 -26 7 -161 -1 -223
-5 -37 -8 -51 -20 -115 -3 -14 -8 -38 -11 -55 -2 -16 -10 -48 -16 -70 -6 -22
-12 -44 -14 -50 -12 -57 -42 -156 -84 -280 -28 -82 -52 -154 -54 -160 -1 -5
-10 -27 -19 -49 -9 -21 -17 -41 -17 -43 0 -3 -6 -19 -14 -36 -7 -18 -33 -78
-57 -134 -24 -57 -47 -103 -51 -103 -5 0 -8 -9 -8 -20 0 -11 -4 -20 -9 -20 -5
0 -13 -10 -16 -21 -8 -23 -183 -331 -194 -339 -4 -3 -12 -16 -19 -30 -14 -29
-9 -22 -132 -208 -52 -79 -99 -151 -105 -160 -48 -77 -396 -555 -415 -572 -3
-3 -33 -41 -67 -85 -49 -65 -202 -256 -281 -350 -9 -11 -39 -47 -67 -80 -27
-33 -54 -65 -60 -71 -5 -6 -19 -22 -30 -35 -19 -22 -90 -103 -225 -259 -109
-125 -114 -129 -150 -134 -67 -9 -115 -17 -132 -22 -10 -3 -30 -7 -45 -10 -50
-9 -146 -35 -248 -67 -55 -17 -102 -31 -105 -32 -3 -1 -12 -4 -20 -7 -8 -4
-53 -20 -100 -37 -124 -44 -154 -55 -160 -61 -3 -3 -12 -6 -20 -8 -8 -2 -98
-39 -200 -83 -102 -44 -189 -81 -195 -82 -5 -1 -12 -4 -15 -8 -3 -3 -29 -15
-57 -27 -131 -56 -668 -320 -818 -402 -119 -66 -181 -99 -225 -121 -25 -13
-46 -27 -48 -31 -2 -4 -8 -8 -13 -8 -9 0 -174 -91 -194 -107 -5 -5 -21 -14
-35 -21 -26 -13 -37 -19 -176 -103 -45 -27 -86 -49 -91 -49 -5 0 -18 -8 -29
-17 -25 -23 -123 -83 -135 -83 -5 0 -9 -4 -9 -10 0 -5 -4 -10 -10 -10 -5 0
-79 -45 -165 -100 -87 -55 -161 -100 -166 -100 -5 0 -9 -4 -9 -10 0 -5 -7 -10
-15 -10 -8 0 -15 -4 -15 -9 0 -5 -12 -15 -28 -22 -37 -19 -205 -131 -214 -144
-4 -5 -9 -7 -12 -4 -3 3 15 35 39 72 25 36 45 69 45 72 0 3 16 30 35 60 19 30
32 55 29 55 -3 0 3 12 13 28 20 29 63 121 89 193 49 134 52 232 9 305 -30 51
-88 101 -127 109 -15 4 -28 10 -28 14 0 12 51 85 61 89 5 2 9 9 9 16 0 7 9 22
21 35 11 12 44 52 72 89 28 37 53 69 56 72 4 3 26 30 51 60 25 30 55 66 67 80
12 14 30 35 40 47 201 232 694 732 992 1003 45 41 97 88 115 105 17 16 67 62
110 100 43 39 88 79 100 90 12 11 48 43 81 70 32 28 64 56 71 62 7 7 81 72
166 143 84 72 164 141 178 153 14 12 48 40 75 62 61 49 74 59 150 124 33 28
63 51 67 51 4 0 50 -84 102 -187 52 -104 106 -208 120 -233 13 -25 31 -56 39
-70 64 -116 127 -214 200 -315 57 -79 149 -188 187 -223 62 -57 151 -80 230
-60 47 13 126 67 142 98 7 14 15 27 18 30 15 15 27 75 25 126 -3 70 -26 121
-83 181 -132 141 -261 350 -459 746 -93 185 -111 230 -101 240 8 7 34 28 58
47 25 19 52 40 60 47 8 6 45 34 83 62 37 28 95 72 130 99 35 26 75 56 91 67
15 11 51 38 80 60 30 22 97 72 151 110 53 39 102 75 108 80 7 6 36 26 65 45
28 18 52 37 52 42 0 4 7 8 15 8 8 0 15 5 15 10 0 6 5 10 10 10 10 0 20 7 53
36 7 6 30 23 52 37 22 15 54 37 71 49 59 42 175 123 191 133 10 6 26 18 37 27
11 10 28 20 38 24 10 3 18 10 18 15 0 5 8 13 18 16 16 7 139 91 405 280 64 45
122 83 127 83 6 0 10 4 10 8 0 4 15 16 33 27 17 10 34 21 37 25 20 26 422 260
446 260 8 0 14 4 14 9 0 5 10 11 23 15 12 3 22 5 22 4 0 0 18 8 40 19 22 11
74 31 115 43 41 12 81 25 89 29 8 4 27 8 42 9 21 2 29 -3 35 -20z m-3996
-1072 c106 -71 201 -170 333 -348 26 -36 47 -70 47 -76 0 -7 3 -12 8 -12 4 0
25 -28 47 -63 22 -34 42 -64 45 -67 3 -3 10 -16 16 -30 11 -23 8 -28 -27 -55
-22 -16 -39 -32 -39 -37 0 -4 -6 -8 -14 -8 -8 0 -16 -3 -18 -7 -1 -5 -28 -28
-58 -53 -66 -54 -86 -71 -125 -105 -16 -14 -54 -45 -84 -68 -30 -23 -64 -51
-76 -62 -12 -11 -48 -43 -81 -71 -32 -28 -111 -95 -174 -149 -63 -54 -131
-113 -150 -131 -39 -36 -64 -58 -164 -148 -38 -33 -84 -74 -101 -91 -17 -16
-75 -70 -129 -120 -341 -315 -791 -772 -962 -974 -7 -8 19 75 26 84 4 6 11 21
15 35 4 14 16 44 26 68 10 23 19 46 20 50 0 4 7 18 14 32 7 14 22 48 34 76 11
27 36 85 55 127 20 42 36 79 36 81 0 2 23 53 51 113 114 242 162 338 173 345
6 4 8 8 4 8 -9 0 63 143 74 148 5 2 8 12 8 22 0 10 4 22 10 25 5 3 21 30 35
58 14 29 30 59 35 67 5 8 46 80 92 160 45 80 85 147 90 148 4 2 8 8 8 13 0 10
60 111 71 119 3 3 14 21 24 40 10 19 21 37 24 40 3 3 37 52 76 110 38 58 73
110 78 115 4 6 32 44 63 85 86 117 95 128 168 219 184 227 284 331 321 331 6
0 39 -20 75 -44z m1985 -3339 c-15 -39 -34 -82 -41 -94 -8 -13 -12 -23 -9 -23
2 0 -8 -21 -23 -47 -16 -27 -31 -56 -35 -65 -3 -10 -22 -43 -42 -73 -19 -31
-35 -58 -35 -61 0 -3 -23 -38 -50 -79 l-50 -75 -70 57 c-39 31 -69 59 -68 63
3 7 93 107 209 231 142 152 225 243 228 253 3 7 6 7 9 -2 2 -6 -8 -45 -23 -85z
m-746 -4 c-8 -9 -25 -29 -39 -43 -14 -15 -43 -46 -66 -71 -64 -70 -67 -72
-112 -60 -40 11 -83 17 -137 20 -29 2 -29 2 15 25 25 12 63 29 85 38 22 9 63
26 90 39 28 12 52 23 55 24 24 8 68 27 80 34 8 6 21 10 29 10 11 1 11 -2 0
-16z m-619 -658 c0 -15 -1104 -1127 -1111 -1120 -3 3 -30 7 -60 10 -30 3 -64
7 -76 10 -13 3 -33 7 -45 10 -13 3 -32 7 -43 9 -46 10 -125 43 -193 83 -9 4
13 48 57 115 50 77 211 247 321 339 35 30 70 59 76 64 23 19 59 46 111 83 52
38 61 44 123 85 50 33 198 117 205 117 4 0 20 9 36 21 16 11 29 18 29 16 0 -3
26 7 58 22 83 40 264 101 347 117 11 2 34 7 50 10 17 4 40 8 52 8 12 1 25 5
28 8 6 6 35 0 35 -7z m661 -161 c35 -26 78 -60 96 -77 l32 -30 -32 -36 c-84
-95 -280 -284 -352 -340 -44 -34 -87 -68 -95 -74 -78 -62 -262 -167 -385 -220
-75 -32 -117 -49 -122 -48 -2 0 -18 -6 -37 -14 -20 -8 -40 -15 -45 -15 -5 0
48 58 117 129 147 148 494 507 643 664 56 59 105 107 109 107 4 0 36 -21 71
-46z m-2612 -551 c-17 -20 -57 -116 -64 -154 -3 -13 -8 -40 -11 -59 -33 -188
50 -375 218 -489 49 -33 171 -93 233 -114 43 -15 61 8 -165 -207 -89 -85 -182
-173 -205 -195 -22 -22 -101 -96 -175 -165 -73 -69 -152 -143 -175 -165 -23
-22 -86 -80 -140 -130 -54 -49 -110 -101 -124 -115 -79 -75 -337 -293 -397
-335 -15 -11 -36 -28 -46 -37 -27 -27 -38 -22 -40 20 0 20 -2 48 -3 62 -14
150 -19 290 -19 530 0 293 9 506 30 695 3 28 6 62 7 78 2 27 24 50 97 106 19
14 37 28 40 31 3 3 23 18 45 35 45 33 48 35 90 70 17 14 33 25 37 25 4 0 13 6
20 13 11 11 77 60 178 132 15 11 54 38 86 60 33 22 68 48 78 57 11 10 25 18
32 18 7 0 14 4 16 8 2 5 78 58 169 119 184 122 217 141 188 106z"/>
</g>
</svg>
