<svg width="779" height="908" viewBox="0 0 779 908" fill="#AA8C2C" xmlns="http://www.w3.org/2000/svg">
<path fill-rule="evenodd" clip-rule="evenodd" d="M773.396 102.504C763.95 146.714 743.36 195.067 737.55 206.083C693.458 289.68 633.893 366.071 571.482 437.413C573.604 440.159 575.461 443.375 576.907 447.141C587.656 475.133 576.856 506.06 566.638 527.607C557.017 547.894 544.237 567.121 535.886 579.686C534.746 581.401 533.689 582.992 532.733 584.445C532.186 585.276 531.636 586.106 531.084 586.933C534.645 592.911 537.886 598.992 540.886 605.097C541.298 605.934 541.633 606.623 541.926 607.225C542.452 608.307 542.84 609.105 543.284 609.968C543.708 610.791 543.975 611.257 544.132 611.513C544.167 611.535 544.206 611.559 544.25 611.585C556.09 618.689 559.929 634.045 552.825 645.885C545.721 657.724 530.365 661.563 518.525 654.46C506.056 646.978 500.764 637.028 497.508 630.266C457.23 674.84 406.082 707.55 341.447 718.41C329.148 720.477 314.897 722.142 299.985 722.577C271.458 750.406 242.667 777.928 213.687 805.181C210.302 808.364 206.894 811.582 203.46 814.825C177.626 839.215 150.347 864.971 120.861 887.403C120.746 887.491 120.5 887.69 120.141 887.981C117.753 889.912 110.361 895.889 103.151 900.102C98.8663 902.606 92.7406 905.7 85.7134 907.136C78.5325 908.604 67.2532 908.863 57.1003 901.071C49.5369 895.266 45.4097 887.493 43.0772 881.831C40.6076 875.836 39.0898 869.564 38.0869 864.179C36.4546 855.415 35.7379 846.171 35.3442 841.092C35.2652 840.073 35.1992 839.221 35.1414 838.575C32.9815 814.429 32.6986 779.91 33.748 757.041C33.7879 756.169 33.8291 755.299 33.8713 754.428C32.2194 754.991 30.3279 755.442 28.2141 755.647C19.5421 756.485 11.8331 752.776 6.96562 747.198C3.13624 742.811 1.90159 738.304 1.49324 736.611C0.986933 734.513 0.86245 732.792 0.820511 731.884C0.73568 730.049 0.876174 728.607 0.93277 728.067C1.12874 726.196 1.52923 724.573 1.58846 724.333L1.59464 724.307C1.84893 723.25 2.18701 722.044 2.46698 721.068C3.07786 718.939 3.93219 716.116 4.78798 713.343C6.28607 708.489 8.51797 701.403 9.33776 699.334C19.8918 672.698 33.6294 647.859 48.7455 624.408C65.9345 528.606 96.2972 435.397 136.59 347.218C169.583 275.014 210.465 201.278 264.659 139.626C265.133 139.087 265.631 138.516 266.155 137.916C272.022 131.191 280.989 120.914 291.792 114.188C298.215 110.189 306.171 106.797 315.561 105.977C325.109 105.144 334.515 107.115 343.466 111.459C375.345 126.93 396.473 158.003 410.992 179.355L411.317 179.834C413.833 183.534 416.265 187.3 418.624 191.114C467.587 153.355 517.709 117.319 568.217 82.6985C574.242 78.5687 580.796 73.9191 587.7 69.0219C601.961 58.9049 617.711 47.7312 633.364 37.9006C657.042 23.0292 683.732 9.02397 712.034 2.62222C725.144 -0.343111 739.185 -0.312736 751.74 6.42979C764.605 13.3386 771.484 24.8953 774.875 35.8438C781.104 55.9542 777.927 81.2991 773.396 102.504ZM442.839 235.596C492.878 196.77 544.363 159.667 596.486 123.94C603.881 118.871 611.119 113.731 618.357 108.591C631.884 98.9841 645.409 89.3791 659.957 80.2422C681.838 66.4992 702.902 55.9509 723.065 51.3902C724.891 50.9772 726.224 50.8107 727.15 50.7558C729.206 57.5701 728.857 71.6608 724.5 92.0566C716.118 131.286 697.243 175.327 693.324 182.757C647.883 268.912 584.742 347.54 517.643 422.815C479.54 427.748 442.804 442.464 411.476 455.812C317.006 496.064 226.62 547.998 142.074 604.938C153.382 588.083 166.336 567.146 172.058 544.831C172.384 543.56 172.972 540.969 172.934 537.713C172.902 534.984 172.397 527.339 166.109 520.604C162.048 516.254 157.391 514.133 153.198 513.208C179.937 474.783 213.544 439.305 247.957 405.206C296.844 356.764 348.79 310.966 402.733 267.353C403.334 268.578 403.937 269.809 404.543 271.044C407.015 276.089 409.532 281.223 412.131 286.447C426.036 314.389 442.062 344.234 465.508 369.571C474.886 379.705 490.703 380.318 500.837 370.94C510.971 361.563 511.584 345.746 502.206 335.612C483.981 315.917 470.586 291.684 456.895 264.171C454.621 259.601 452.325 254.909 449.989 250.134C447.653 245.358 445.276 240.499 442.839 235.596ZM379.037 222.24C376.142 217.369 373.138 212.606 369.971 207.949C354.03 184.507 339.759 165.237 321.636 156.442C320.685 155.98 320.13 155.838 319.891 155.799C319.69 155.856 319.157 156.049 318.219 156.634C316.592 157.647 314.44 159.401 311.56 162.318C308.955 164.957 306.426 167.838 303.364 171.326C302.989 171.753 302.605 172.19 302.213 172.637C252.583 229.097 214.094 297.908 182.067 367.999C172.887 388.088 164.255 408.426 156.207 428.981C174.747 407.929 194.061 388.221 212.764 369.689C265.339 317.592 321.206 268.619 379.037 222.24ZM5.29997 716.477C5.21457 716.603 5.12959 716.73 5.04503 716.857L5.07708 716.808C5.12374 716.738 5.19808 716.625 5.29997 716.477ZM87.6061 706.654C85.8132 724.166 84.503 741.731 83.6954 759.332C82.7259 780.461 83.0241 812.673 84.9426 834.121C85.0623 835.459 85.173 836.849 85.287 838.282C85.5994 842.204 85.937 846.444 86.5537 850.801C86.8978 850.529 87.2365 850.259 87.5714 849.991C87.6962 849.892 87.8287 849.786 87.967 849.675C88.7712 849.031 89.7709 848.232 90.5871 847.611C117.805 826.904 143.038 803.092 169.095 778.502C172.525 775.265 175.969 772.015 179.434 768.757C198.479 750.847 217.429 732.832 236.263 714.701C226.508 711.501 217.036 707.125 208.359 701.211C196.459 693.102 188.882 681.627 187.01 668.027C185.297 655.586 188.757 644.227 192.648 635.721C193.657 633.516 194.769 631.345 195.957 629.221C183.63 637.246 171.408 645.403 159.295 653.671C134.526 670.578 110.445 688.028 87.6061 706.654ZM412.959 509.7C420.314 510.258 427.662 511.349 434.957 513.036L435.808 512.12C441.95 505.51 448.104 498.886 454.261 492.245C446.557 495.285 438.827 498.508 431.075 501.811C425.021 504.39 418.983 507.021 412.959 509.7ZM529.707 484.125C514.177 501.172 498.644 517.942 483.297 534.466C485.999 536.333 488.678 538.315 491.33 540.416C493.676 542.275 495.939 544.184 498.123 546.138C505.844 534.412 514.638 520.568 521.461 506.182C525.519 497.625 528.176 490.282 529.707 484.125ZM468.74 587.134C466.063 584.47 463.249 581.959 460.276 579.604C456.488 576.602 452.597 573.956 448.61 571.649C419.661 602.379 390.265 632.691 360.511 662.63C403.519 649.347 439.095 622.926 468.74 587.134ZM279.9 672.267C317.552 635.269 354.668 597.759 391.078 559.645C380.528 560.535 369.695 562.826 358.684 566.338C320.959 578.37 283.996 604.118 257.207 631.495C250.02 638.84 241.878 648.297 238.116 656.521C237.383 658.124 236.999 659.295 236.796 660.083C247.012 666.937 261.852 671.009 279.9 672.267ZM89.7417 863.698C89.7405 863.7 89.7135 863.658 89.664 863.565C89.7182 863.649 89.7429 863.695 89.7417 863.698ZM162.239 557.51C162.236 557.519 162.13 557.618 161.932 557.781C162.144 557.583 162.243 557.501 162.239 557.51ZM319.984 155.777C319.984 155.778 319.972 155.781 319.947 155.784C319.971 155.778 319.983 155.777 319.984 155.777ZM319.846 155.792C319.785 155.794 319.752 155.79 319.75 155.787C319.748 155.784 319.779 155.783 319.846 155.792ZM728.891 50.8123C728.89 50.8134 728.865 50.8089 728.819 50.7956C728.868 50.8046 728.891 50.8113 728.891 50.8123ZM726.569 49.2295C726.554 49.207 726.547 49.1946 726.547 49.194C726.547 49.1935 726.555 49.2047 726.569 49.2295Z" />
</svg>
