<?xml version="1.0" standalone="no"?>
<!DOCTYPE svg PUBLIC "-//W3C//DTD SVG 20010904//EN"
 "http://www.w3.org/TR/2001/REC-SVG-20010904/DTD/svg10.dtd">
<svg version="1.0" xmlns="http://www.w3.org/2000/svg"
 width="942.000000pt" height="942.000000pt" viewBox="0 0 942.000000 942.000000"
 preserveAspectRatio="xMidYMid meet">
<metadata>
Created by potrace 1.11, written by Peter Selinger 2001-2013
</metadata>
<g transform="translate(0.000000,942.000000) scale(0.100000,-0.100000)"
fill="#000000" stroke="none">
<path d="M1479 9406 c-2 -2 -26 -6 -54 -9 -101 -12 -125 -17 -295 -61 -52 -13
-274 -110 -290 -126 -3 -3 -25 -16 -50 -29 -25 -13 -54 -32 -66 -42 -11 -11
-24 -19 -28 -19 -13 0 -159 -123 -221 -186 -84 -86 -105 -111 -156 -179 -24
-33 -48 -63 -54 -67 -5 -4 -7 -8 -3 -8 7 0 -29 -59 -52 -87 -5 -7 -10 -19 -10
-27 0 -8 -4 -16 -8 -18 -17 -7 -129 -281 -124 -301 1 -4 -2 -16 -7 -25 -9 -17
-31 -118 -48 -217 -10 -61 -11 -6534 0 -6590 4 -22 10 -58 14 -80 8 -46 10
-54 13 -57 1 -2 4 -16 6 -32 13 -75 110 -331 141 -367 7 -8 13 -19 13 -23 0
-8 63 -117 82 -141 108 -144 203 -247 298 -325 30 -25 64 -53 74 -62 11 -10
25 -18 32 -18 7 0 14 -3 16 -7 9 -22 145 -101 262 -153 69 -31 206 -80 206
-75 0 2 12 0 28 -6 15 -6 36 -13 47 -15 11 -2 31 -6 45 -9 14 -3 43 -8 65 -11
22 -3 56 -9 75 -14 54 -15 6518 -6 6595 8 33 7 71 14 85 16 14 2 25 5 25 6 0
1 9 3 20 5 47 7 167 46 245 80 172 73 339 177 437 272 18 17 33 29 33 26 0 -6
103 101 153 158 43 51 167 234 167 247 0 5 7 15 15 22 8 7 13 16 10 20 -3 4 2
13 10 20 8 7 15 20 15 30 0 10 7 23 15 30 8 7 15 17 15 23 0 6 14 48 31 95 17
46 32 89 33 96 2 6 8 31 15 56 16 54 19 73 36 190 6 40 16 168 16 190 -1 20 1
142 2 155 0 6 -3 23 -7 38 -3 15 -3 27 2 27 5 0 6 19 3 42 -4 24 -4 57 -1 73
3 17 3 49 -1 72 -3 23 -2 47 2 54 4 6 3 26 -2 43 -5 17 -5 32 -1 34 5 1 6 22
3 45 -4 23 -4 56 -1 72 3 17 3 50 -1 75 -4 25 -4 52 0 60 4 8 5 29 1 45 -3 17
-3 45 1 63 4 17 3 34 -2 37 -4 3 -5 16 0 28 5 12 5 31 1 42 -4 11 -4 33 0 50
3 16 5 44 3 60 -7 73 -7 225 0 225 5 0 6 4 3 8 -3 5 -6 24 -6 43 -1 41 -1 158
0 179 0 17 0 40 -3 118 -1 28 1 52 4 52 3 0 3 19 -1 43 -3 23 -3 57 1 75 4 18
3 35 -2 38 -4 2 -5 15 0 27 5 12 5 31 1 42 -4 11 -4 33 -1 50 8 34 7 61 -3 99
-3 14 -3 26 2 26 5 0 6 19 3 43 -4 23 -4 56 -1 72 3 17 3 49 -1 72 -3 23 -2
47 2 54 4 6 3 26 -2 43 -6 20 -5 32 1 34 6 2 8 8 5 13 -3 4 -5 34 -5 66 0 32
0 76 -1 98 -1 22 -1 47 0 55 1 17 1 26 -2 158 -1 50 1 92 4 92 4 0 3 17 0 38
-4 20 -4 53 -1 72 3 19 3 54 -1 77 -3 23 -2 47 1 54 4 6 5 22 1 36 -4 14 -4
51 -1 82 3 32 3 68 0 81 -3 13 -3 49 0 81 3 31 2 70 -2 86 -4 15 -4 29 1 31 4
1 5 19 2 40 -4 20 -4 53 -1 72 3 19 3 54 -1 77 -3 23 -2 47 1 54 4 6 5 22 1
36 -4 14 -4 51 -1 83 3 32 2 71 -2 87 -4 15 -4 29 1 31 4 1 5 22 2 45 -4 23
-4 56 -1 72 3 17 3 49 -1 72 -3 23 -2 47 2 54 4 6 3 26 -2 43 -5 17 -5 32 -1
34 5 1 6 22 3 45 -4 23 -4 56 -1 72 3 17 3 50 -1 75 -4 25 -4 46 0 48 4 1 5
22 1 45 -3 23 -3 57 1 75 4 18 3 35 -2 38 -4 2 -5 15 0 27 5 12 5 31 1 42 -4
11 -4 33 0 50 3 16 5 44 3 60 -7 73 -7 225 0 225 5 0 6 4 3 8 -3 5 -6 24 -6
43 -1 41 -1 158 0 179 0 17 0 40 -3 118 -1 28 1 52 4 52 3 0 3 19 -1 43 -3 23
-3 57 1 75 4 18 3 35 -2 38 -4 2 -5 15 0 27 5 12 5 31 1 42 -4 11 -4 33 0 50
4 17 6 37 5 45 -2 8 -5 30 -8 47 -3 18 -2 35 3 38 4 3 4 20 0 39 -4 19 -6 37
-3 40 8 8 0 247 -11 326 -11 78 -22 136 -30 165 -2 6 -6 27 -11 48 -4 20 -11
37 -17 37 -5 0 -7 4 -4 9 12 19 -77 234 -140 336 -13 22 -27 47 -31 55 -8 18
-74 108 -128 176 -38 46 -161 171 -202 204 -10 8 -39 32 -65 53 -25 20 -51 37
-56 37 -6 0 -12 3 -14 8 -4 9 -85 62 -95 62 -5 0 -19 9 -33 20 -14 11 -32 20
-42 20 -9 0 -18 3 -20 8 -3 6 -102 56 -117 58 -3 0 -19 6 -34 12 -16 7 -34 12
-41 12 -7 0 -16 3 -20 8 -4 4 -11 7 -14 8 -4 0 -14 3 -22 7 -8 3 -28 8 -45 12
-16 3 -50 10 -75 16 -25 5 -56 12 -70 14 -14 3 -36 8 -50 12 -25 8 -6523 17
-6531 9z m4979 -1951 c26 -6 134 -109 498 -473 263 -263 473 -481 483 -501 16
-33 19 -76 7 -126 -2 -11 -5 -23 -5 -28 -1 -4 -127 -133 -280 -287 l-279 -280
-144 141 c-78 78 -320 315 -537 527 -216 213 -408 403 -427 422 l-33 35 277
276 c174 174 290 282 312 291 36 15 73 16 128 3z m-952 -1137 c91 -90 268
-264 394 -388 125 -124 307 -303 404 -398 l176 -173 -1210 -1210 -1209 -1209
-134 132 c-74 73 -311 306 -526 518 -216 212 -413 405 -437 429 l-44 44 1207
1208 c665 665 1209 1209 1211 1209 1 0 77 -73 168 -162z m-2766 -2875 c113
-111 297 -293 410 -403 452 -445 500 -493 500 -502 0 -6 -139 -149 -309 -318
-259 -259 -316 -311 -350 -320 -26 -7 -205 -10 -511 -10 -450 1 -474 2 -511
20 -35 19 -84 70 -84 90 0 5 -3 12 -7 16 -4 4 -8 223 -8 486 0 422 2 484 17
511 22 44 624 647 638 639 5 -3 102 -97 215 -209z"/>
</g>
</svg>
